# xmcd CD database file
#
# Track frame offsets:
#	150
#	14207
#	32677
#	54830
#	69297
#	84725
#	101600
#	125705
#	137910
#	158047
#	172930
#	183302
#	196785
#	217802
#	234512
#
# Disc length: 3874 seconds
#
# Revision: 3
# Processed by: cddbd v1.5.2PL0 Copyright (c) Steve Scherf et al.
# Submitted via: CDex 1.51
#
DISCID=c50f200f
DTITLE=Chet Baker - Baby Breeze
DYEAR=1991
DGENRE=Jazz
TTITLE0=Baby Breeze
TTITLE1=Born to Be Blue
TTITLE2=This Is The Thing
TTITLE3=I Wish You Love
TTITLE4=Everything Depends on You
TTITLE5=One With One
TTITLE6=Pamela's Passion
TTITLE7=The Touch of Your Lips
TTITLE8=Comin' Down
TTITLE9=You're Mine, You
TTITLE10=Sweet Sue, Just You
TTITLE11=A Taste of Honey
TTITLE12=Think Beautiful
TTITLE13=I Wish You Love - alternative take
TTITLE14=Think Beautiful - alternative take
EXTD=YEAR: 1991
EXTT0=
EXTT1=
EXTT2=
EXTT3=
EXTT4=
EXTT5=
EXTT6=
EXTT7=
EXTT8=
EXTT9=
EXTT10=
EXTT11=
EXTT12=
EXTT13=
EXTT14=
PLAYORDER=
